<svg width="128" height="128" viewBox="0 0 128 128" fill="none" xmlns="http://www.w3.org/2000/svg">
<path fill-rule="evenodd" clip-rule="evenodd" d="M55.8893 49.9714C45.4007 50.2647 32.5547 47.3615 17.0193 39.8428C22.4623 57.1956 28.7935 67.6593 33.4538 75.3614C34.0999 76.4292 34.7138 77.4439 35.2889 78.4165C37.9286 82.8813 40.2965 87.2794 40.3589 92.0807C40.3989 95.1544 39.513 98.046 37.8282 100.971C38.7658 100.683 39.759 100.372 40.8006 100.044C41.0389 99.9691 41.2794 99.8934 41.5218 99.8171C44.3298 98.9331 47.4034 97.9655 50.4279 97.1129C53.7027 96.1896 57.0464 95.3642 60.066 94.9151C62.9424 94.4873 66.1182 94.3 68.7413 95.1376C70.1389 95.5838 71.6251 96.399 72.7235 97.855C73.8476 99.3453 74.253 101.092 74.2002 102.804C74.1063 105.843 72.559 109.28 70.1819 113.028C71.9124 111.831 73.8159 110.409 75.8093 108.831C81.6118 104.236 87.9351 98.5002 92.6234 93.5249C94.9805 91.0234 96.8233 88.8205 97.9779 87.1185C98.0866 86.9582 98.1859 86.8072 98.2764 86.6653C97.1498 86.2562 95.6366 85.825 93.6979 85.3082C93.1805 85.1703 92.6394 85.0281 92.0778 84.8804C87.8467 83.7683 82.4543 82.3508 77.2595 80.1678C71.3668 77.6916 65.2721 74.0553 61.0799 68.2783C57.571 63.4427 55.6126 57.409 55.8893 49.9714ZM49.224 41.4068C39.6495 40.3847 27.5236 36.5298 12.4199 28.096L8.07569 25.6702C6.54026 24.8128 4.72535 26.212 5.16377 27.915L6.41071 32.7588C12.6382 56.9494 20.8677 70.5447 26.3733 79.6402C27.0159 80.7017 27.6213 81.7019 28.1822 82.6505C30.9289 87.2964 32.0658 89.8979 32.0956 92.1889C32.122 94.2193 31.2468 96.8364 27.3715 101.282C26.6154 102.15 25.6893 103.337 25.2785 104.703C25.0519 105.457 24.8601 106.67 25.378 107.989C25.9305 109.395 27.0007 110.198 27.8987 110.599C29.3549 111.249 30.9285 111.114 31.7271 111.025C32.7544 110.91 33.9042 110.669 35.0646 110.38C37.394 109.801 40.2829 108.901 43.2716 107.96C43.5057 107.887 43.7409 107.813 43.977 107.738C46.8061 106.848 49.7638 105.917 52.6623 105.1C55.8134 104.211 58.7681 103.495 61.2771 103.121C63.567 102.781 65.0599 102.798 65.891 102.957C65.7165 103.892 65.0306 105.752 63.0197 108.871C60.6047 112.618 58.9306 115.794 58.497 118.248C58.2903 119.418 58.1354 121.76 59.9645 123.534C61.7443 125.259 64.0017 125.066 65.0299 124.887C67.2638 124.496 69.904 123.07 72.3267 121.544C74.9258 119.908 77.8881 117.751 80.9275 115.344C87.0046 110.532 93.6308 104.528 98.627 99.2258C101.112 96.5886 103.295 94.0186 104.808 91.788C105.558 90.6833 106.241 89.5207 106.692 88.3769C106.788 88.1348 106.894 87.8438 106.989 87.5145C111.645 85.7469 116.906 83.701 121.144 78.9888C122.249 77.7601 121.906 75.8784 120.554 74.9282L118.693 73.6205C117.334 72.6655 115.48 73.0277 114.292 74.1888C111.557 76.8618 108.136 78.1798 103.585 79.9327C103.573 79.9373 103.561 79.9419 103.549 79.9465C103.032 79.6625 102.503 79.4222 101.998 79.215C100.263 78.5034 98.0564 77.8866 95.8188 77.2901C95.272 77.1444 94.7143 76.9975 94.1472 76.848C89.8746 75.7224 85.0706 74.4568 80.4506 72.5153C75.2256 70.3197 70.6921 67.4349 67.7596 63.3937C65.2834 59.9812 63.7117 55.4188 64.2222 48.9901C84.0121 44.7158 91.7357 27.7857 91.3349 16.724C91.2292 13.8082 90.5503 10.8378 88.9374 8.55231C87.1655 6.04149 84.2789 4.47344 80.7902 5.05941C77.7233 5.57453 74.8795 7.65231 72.2997 10.5091C71.3182 11.596 70.3194 12.8571 69.3048 14.301C67.9796 12.2502 66.7344 10.5113 65.5619 9.06834C63.5834 6.63346 61.508 4.6544 59.2784 3.67606C58.0934 3.15609 56.7097 2.85133 55.2334 3.07348C53.7248 3.3005 52.4866 4.02318 51.5445 4.94398C49.8295 6.62032 49.0007 9.03174 48.5289 11.1139C47.5421 15.4685 47.4695 21.5158 47.8242 27.6531C48.084 32.1496 48.5872 36.8966 49.224 41.4068ZM64.5138 22.2989C62.4242 18.7494 60.6467 16.1441 59.1581 14.3121C58.1839 13.1131 57.4232 12.3592 56.8737 11.8977C56.7824 12.1773 56.6843 12.5252 56.5871 12.954C55.8719 16.1102 55.7281 21.1809 56.0744 27.1727C56.3177 31.383 56.7905 35.8635 57.3921 40.1414C58.692 35.0718 60.8516 29.4875 63.9891 23.3169C64.1643 22.9723 64.3392 22.6329 64.5138 22.2989ZM99.0722 85.129C99.0722 85.129 99.0695 85.1518 99.0522 85.2041C99.0615 85.1562 99.0722 85.129 99.0722 85.129ZM63.6128 116.714C63.5381 116.727 63.5472 116.719 63.6199 116.712C63.6175 116.713 63.6151 116.713 63.6128 116.714ZM66.6318 119.71C66.6292 119.741 66.6256 119.759 66.6256 119.759C66.6256 119.759 66.6261 119.744 66.6318 119.71ZM30.436 102.803C30.436 102.803 30.4543 102.802 30.4865 102.804C30.4513 102.805 30.436 102.803 30.436 102.803ZM66.0514 39.8762C67.2059 36.0943 68.9289 31.8497 71.3497 27.0884C74.0316 21.814 76.427 18.2906 78.4225 16.0809C80.4311 13.8566 81.6947 13.336 82.1177 13.2484C82.1392 13.2738 82.1648 13.3065 82.1941 13.348C82.5409 13.8394 83.0037 15.0208 83.0763 17.0255C83.3305 24.0411 78.6993 35.4689 66.0514 39.8762Z" fill="#AF8A2C"/>
</svg>
